<?xml version="1.0" standalone="no"?>
<!DOCTYPE svg PUBLIC "-//W3C//DTD SVG 20010904//EN"
 "http://www.w3.org/TR/2001/REC-SVG-20010904/DTD/svg10.dtd">
<svg version="1.0" xmlns="http://www.w3.org/2000/svg"
 width="300.000000pt" height="300.000000pt" viewBox="0 0 300.000000 300.000000"
 preserveAspectRatio="xMidYMid meet">
<metadata>
Created by potrace 1.10, written by Peter Selinger 2001-2011
</metadata>
<g transform="translate(0.000000,300.000000) scale(0.100000,-0.100000)"
fill="#ffffff" stroke="none">
<path d="M1290 2939 c-667 -82 -1181 -595 -1271 -1264 -15 -112 -6 -361 16
-465 149 -690 734 -1168 1425 -1163 232 1 427 43 610 129 293 139 509 342 669
628 136 245 199 559 166 835 -42 362 -179 649 -426 891 -206 202 -479 345
-755 395 -109 20 -332 27 -434 14z m-831 -1437 l156 -622 189 2 190 3 155 623
156 622 52 0 c29 0 53 -5 53 -10 0 -6 -75 -309 -166 -675 l-166 -665 -274 0
-273 0 -10 38 c-6 20 -82 324 -169 675 l-160 638 56 -3 56 -3 155 -623z m162
93 l132 -536 51 3 50 3 126 505 c70 278 130 517 133 533 7 25 11 27 62 27 l55
0 -7 -27 c-3 -16 -70 -280 -147 -588 l-141 -560 -131 -3 -131 -3 -147 586
c-80 322 -146 587 -146 590 0 3 24 5 54 5 l54 0 133 -535z m2047 462 l72 -72
0 -530 0 -531 -72 -71 -73 -71 -306 -6 c-169 -4 -402 -4 -518 0 l-211 7 0 674
0 673 518 0 518 0 72 -73z"/>
<path d="M1665 2018 c-3 -7 -4 -265 -3 -573 l3 -560 464 -3 c421 -2 466 -1
483 14 17 16 18 46 18 559 0 512 -1 543 -18 558 -17 15 -65 17 -481 17 -360 0
-463 -3 -466 -12z m895 -293 l0 -235 -410 0 -410 0 0 235 0 235 410 0 410 0 0
-235z m-2 -537 l-3 -233 -407 -3 -408 -2 0 235 0 235 410 0 410 0 -2 -232z"/>
<path d="M1840 1725 l0 -125 305 0 305 0 0 125 0 125 -305 0 -305 0 0 -125z"/>
<path d="M1840 1185 l0 -125 305 0 305 0 0 125 0 125 -305 0 -305 0 0 -125z"/>
</g>
</svg>
