<?xml version="1.0" encoding="utf-8"?>
<!-- Generator: Adobe Illustrator 25.0.0, SVG Export Plug-In . SVG Version: 6.00 Build 0)  -->
<svg version="1.1" id="Layer_1" xmlns="http://www.w3.org/2000/svg" xmlns:xlink="http://www.w3.org/1999/xlink" x="0px" y="0px"
	 viewBox="0 0 900 495" style="enable-background:new 0 0 900 495;" xml:space="preserve">
<style type="text/css">
	.st0{fill:#FFFFF0;}
</style>
<g transform="translate(0.000000,495.000000) scale(0.100000,-0.100000)">
	<path class="st0" d="M198.2,4760c-3-5-1-27,5-47c7-21,15-56,20-78c4-22,24-103,45-180c20-77,41-156,45-175s13-55,19-80
		c7-25,19-72,28-105c8-33,21-87,30-120c8-33,21-86,29-117c8-32,21-85,29-118s22-87,30-120s22-88,31-122c8-35,22-88,29-118
		s21-83,29-117c9-35,23-91,32-125c8-35,22-88,29-118s20-82,28-115c9-33,23-89,32-125s23-92,32-125c8-33,21-85,28-115
		c17-70,39-157,60-240c18-71,39-154,61-242c8-32,21-85,29-118s21-86,29-117c8-32,20-78,27-103c6-25,15-61,19-80c9-43,86-350,102-405
		c6-22,14-56,18-75s31-125,59-235c29-110,56-218,60-240c9-40,51-208,75-300c8-27,22-79,31-115c10-36,19-71,21-77c3-10,196-13,923-13
		h920l16,55c8,30,20,78,25,106s12,54,15,59s9,28,14,52c7,36,88,359,132,528c6,25,15,61,19,80s25,98,45,175c21,77,41,156,45,175
		s13,55,19,80c45,175,95,371,101,400c4,19,13,55,19,80c7,25,19,70,26,100s20,82,28,115c9,33,22,87,30,120c9,33,23,88,31,123
		c9,34,22,88,30,120c8,31,22,85,30,120c9,34,23,89,31,122s22,87,30,120s21,86,29,118c8,31,22,85,30,120c9,34,22,88,30,120
		c8,31,20,77,27,102c6,25,15,61,19,80c7,31,29,121,75,303c8,31,21,83,29,115c15,61,39,155,61,237c30,116,63,249,75,305
		c4,19,25,98,45,175c21,77,38,149,39,160c1,19-6,20-174,23c-169,3-176,2-193-19c-9-12-17-31-17-43s-6-42-14-67c-14-46-33-120-46-179
		c-4-19-32-127-60-240c-29-113-56-221-60-240s-31-125-60-235s-56-221-60-247c-5-27-11-52-15-57c-3-5-9-29-14-53s-26-106-46-183
		c-21-77-41-159-46-183s-11-48-14-53c-4-5-10-30-14-57c-5-26-26-110-46-187c-21-77-41-156-45-175s-13-55-19-80c-12-43-26-96-57-222
		c-8-32-21-85-29-118s-22-87-30-120s-22-87-30-120s-22-87-30-120s-21-86-29-117c-8-32-20-78-27-103c-6-25-15-61-19-80s-20-82-34-140
		c-15-58-33-130-41-160c-7-30-19-75-26-100c-6-25-15-61-19-80s-24-98-45-175c-20-77-42-162-47-190c-19-94,53-85-658-85h-629l-15,22
		c-9,12-16,31-16,42s-6,42-14,70s-21,78-30,111c-8,33-22,88-30,123c-9,34-22,88-30,120c-8,31-22,86-31,122s-23,92-32,125
		c-8,33-21,87-30,120c-8,33-21,86-29,118c-8,31-21,84-29,117s-22,87-30,120s-22,88-31,123c-24,96-44,177-59,237c-7,30-21,84-30,120
		s-23,90-30,120c-17,70-39,157-60,240c-9,36-23,91-31,123c-8,31-20,83-28,115c-22,88-43,171-61,242c-21,83-43,170-60,240
		c-15,60-35,141-59,238c-9,34-22,88-30,120c-8,31-22,86-31,122s-23,92-32,125c-8,33-21,87-30,120c-8,33-21,85-28,115s-21,84-30,120
		s-23,91-31,123c-8,31-20,83-28,115c-8,31-21,84-30,117c-8,33-18,73-21,90c-12,54-14,55-201,55C274.2,4770,202.2,4766,198.2,4760z"
		/>
	<path class="st0" d="M826.2,4733c4-33,41-185,103-428c9-33,22-87,30-120c9-33,21-82,29-110c7-27,20-81,30-120c16-67,26-107,60-245
		c8-33,21-86,29-117c8-32,20-78,27-103c6-25,15-61,19-80c7-32,37-152,76-305c9-33,22-87,30-120c9-33,21-82,29-110
		c7-27,27-108,44-180c18-71,37-148,43-170s14-56,18-75s25-98,45-175s44-169,52-205s18-81,23-100c4-19,39-159,78-310
		c38-151,71-286,74-300s22-88,43-165c20-77,41-158,46-180c17-85,47-192,58-213l12-22h439h439l15,28c8,15,17,46,21,67
		c4,22,13,63,20,90c16,60,35,137,45,185c4,19,31,125,60,235s56,218,60,240s30,128,59,235c57,221,50,193,91,365c34,146,55,227,75,300
		c8,28,37,145,65,260c28,116,56,224,60,240c5,17,30,116,55,220c25,105,51,208,57,230s14,56,18,75s24,98,45,175c39,147,60,234,74,300
		c5,22,32,130,61,240s56,218,60,240s19,85,34,140c15,54,24,105,21,112c-3,11-43,13-182,11l-178-3l-11-40c-14-47-40-148-59-225
		c-7-30-21-84-30-120s-23-90-30-120s-21-83-29-117c-9-35-23-90-31-123s-22-87-30-120s-22-88-31-122c-8-35-22-89-30-120
		c-8-32-21-85-29-118s-22-87-30-120s-22-87-30-120s-21-86-29-117c-8-32-20-78-27-103c-6-25-15-61-19-80c-7-32-68-277-105-422
		c-8-32-22-85-30-118s-22-87-30-120s-22-87-30-120s-21-86-29-117c-31-127-45-180-57-223c-6-25-15-61-19-80c-5-19-18-73-30-120
		c-13-47-26-101-30-120c-10-45-56-230-74-295c-8-27-17-65-21-83c-9-41-18-43-194-40c-162,3-150-3-175,93c-37,146-99,393-106,425
		c-4,19-13,55-19,80c-45,175-95,371-101,400c-4,19-12,53-18,75s-32,126-58,230c-25,105-52,213-59,240c-26,95-45,171-75,300
		c-31,130-50,206-75,300c-8,28-21,77-29,110s-19,79-25,102s-15,61-20,85c-5,23-33,133-61,243c-29,110-56,218-60,240s-31,130-60,240
		c-50,192-72,283-90,371c-5,22-14,52-21,67l-12,27h-180h-179L826.2,4733z"/>
	<path class="st0" d="M4818.2,4758c-3-7-4-1039-3-2293l3-2280l1750-3l1750-2l243,240l242,240v1813v1814l-242,241l-243,242h-1748
		C5181.2,4770,4821.2,4767,4818.2,4758z M8380.2,4348l63-62V2475V664l-63-62l-63-62l-1569,2l-1570,3l-3,1920c-1,1056,0,1926,3,1933
		c3,9,327,12,1572,12h1567L8380.2,4348z"/>
	<path class="st0" d="M5420.2,4163c-10-9-9-1551,1-1557c17-10,2762-10,2772,0c7,7,9,285,8,785l-3,774l-1386,3
		C6050.2,4169,5423.2,4167,5420.2,4163z M7833.2,3791c15-30,14-803-2-819c-9-9-251-12-1029-12c-918,0-1017,2-1023,16
		c-3,9-6,194-6,413c0,295,3,400,12,409s250,12,1025,12C7801.2,3810,7823.2,3810,7833.2,3791z"/>
	<path class="st0" d="M5441.2,2350l-23-6v-779V785h1390h1390l3,778c2,665,0,778-12,783C8170.2,2353,5471.2,2357,5441.2,2350z
		 M7837.2,1974c11-28,7-794-4-815c-10-19-32-19-1023-19c-775,0-1016,3-1025,12s-12,114-12,409c0,219,3,404,6,413
		c6,14,106,16,1029,16S7831.2,1988,7837.2,1974z"/>
</g>
</svg>
