<?xml version="1.0" standalone="no"?>
<!DOCTYPE svg PUBLIC "-//W3C//DTD SVG 20010904//EN"
 "http://www.w3.org/TR/2001/REC-SVG-20010904/DTD/svg10.dtd">
<svg version="1.0" xmlns="http://www.w3.org/2000/svg"
 width="900.000000pt" height="495.000000pt" viewBox="0 0 900.000000 495.000000"
 preserveAspectRatio="xMidYMid meet">
<metadata>
Created by potrace 1.10, written by Peter Selinger 2001-2011
</metadata>
<g transform="translate(0.000000,495.000000) scale(0.100000,-0.100000)"
fill="#000000" stroke="none">
<path d="M115 4780 c-3 -5 -1 -27 5 -47 7 -21 15 -56 20 -78 4 -22 24 -103 45
-180 20 -77 41 -156 45 -175 4 -19 13 -55 19 -80 7 -25 19 -72 28 -105 8 -33
21 -87 30 -120 8 -33 21 -86 29 -117 8 -32 21 -85 29 -118 8 -33 22 -87 30
-120 8 -33 22 -88 31 -122 8 -35 22 -88 29 -118 7 -30 21 -83 29 -117 9 -35
23 -91 32 -125 8 -35 22 -88 29 -118 7 -30 20 -82 28 -115 9 -33 23 -89 32
-125 9 -36 23 -92 32 -125 8 -33 21 -85 28 -115 17 -70 39 -157 60 -240 18
-71 39 -154 61 -242 8 -32 21 -85 29 -118 8 -33 21 -86 29 -117 8 -32 20 -78
27 -103 6 -25 15 -61 19 -80 9 -43 86 -350 102 -405 6 -22 14 -56 18 -75 4
-19 31 -125 59 -235 29 -110 56 -218 60 -240 9 -40 51 -208 75 -300 8 -27 22
-79 31 -115 10 -36 19 -71 21 -77 3 -10 196 -13 923 -13 l920 0 16 55 c8 30
20 78 25 106 5 28 12 54 15 59 3 5 9 28 14 52 7 36 88 359 132 528 6 25 15 61
19 80 4 19 25 98 45 175 21 77 41 156 45 175 4 19 13 55 19 80 45 175 95 371
101 400 4 19 13 55 19 80 7 25 19 70 26 100 7 30 20 82 28 115 9 33 22 87 30
120 9 33 23 88 31 123 9 34 22 88 30 120 8 31 22 85 30 120 9 34 23 89 31 122
8 33 22 87 30 120 8 33 21 86 29 118 8 31 22 85 30 120 9 34 22 88 30 120 8
31 20 77 27 102 6 25 15 61 19 80 7 31 29 121 75 303 8 31 21 83 29 115 15 61
39 155 61 237 30 116 63 249 75 305 4 19 25 98 45 175 21 77 38 149 39 160 1
19 -6 20 -174 23 -169 3 -176 2 -193 -19 -9 -12 -17 -31 -17 -43 0 -12 -6 -42
-14 -67 -14 -46 -33 -120 -46 -179 -4 -19 -32 -127 -60 -240 -29 -113 -56
-221 -60 -240 -4 -19 -31 -125 -60 -235 -29 -110 -56 -221 -60 -247 -5 -27
-11 -52 -15 -57 -3 -5 -9 -29 -14 -53 -5 -24 -26 -106 -46 -183 -21 -77 -41
-159 -46 -183 -5 -24 -11 -48 -14 -53 -4 -5 -10 -30 -14 -57 -5 -26 -26 -110
-46 -187 -21 -77 -41 -156 -45 -175 -4 -19 -13 -55 -19 -80 -12 -43 -26 -96
-57 -222 -8 -32 -21 -85 -29 -118 -8 -33 -22 -87 -30 -120 -8 -33 -22 -87 -30
-120 -8 -33 -22 -87 -30 -120 -8 -33 -21 -86 -29 -117 -8 -32 -20 -78 -27
-103 -6 -25 -15 -61 -19 -80 -4 -19 -20 -82 -34 -140 -15 -58 -33 -130 -41
-160 -7 -30 -19 -75 -26 -100 -6 -25 -15 -61 -19 -80 -4 -19 -24 -98 -45 -175
-20 -77 -42 -162 -47 -190 -19 -94 53 -85 -658 -85 l-629 0 -15 22 c-9 12 -16
31 -16 42 0 11 -6 42 -14 70 -8 28 -21 78 -30 111 -8 33 -22 88 -30 123 -9 34
-22 88 -30 120 -8 31 -22 86 -31 122 -9 36 -23 92 -32 125 -8 33 -21 87 -30
120 -8 33 -21 86 -29 118 -8 31 -21 84 -29 117 -8 33 -22 87 -30 120 -8 33
-22 88 -31 123 -24 96 -44 177 -59 237 -7 30 -21 84 -30 120 -9 36 -23 90 -30
120 -17 70 -39 157 -60 240 -9 36 -23 91 -31 123 -8 31 -20 83 -28 115 -22 88
-43 171 -61 242 -21 83 -43 170 -60 240 -15 60 -35 141 -59 238 -9 34 -22 88
-30 120 -8 31 -22 86 -31 122 -9 36 -23 92 -32 125 -8 33 -21 87 -30 120 -8
33 -21 85 -28 115 -7 30 -21 84 -30 120 -9 36 -23 91 -31 123 -8 31 -20 83
-28 115 -8 31 -21 84 -30 117 -8 33 -18 73 -21 90 -12 54 -14 55 -201 55 -103
0 -175 -4 -179 -10z"/>
<path d="M743 4753 c4 -33 41 -185 103 -428 9 -33 22 -87 30 -120 9 -33 21
-82 29 -110 7 -27 20 -81 30 -120 16 -67 26 -107 60 -245 8 -33 21 -86 29
-117 8 -32 20 -78 27 -103 6 -25 15 -61 19 -80 7 -32 37 -152 76 -305 9 -33
22 -87 30 -120 9 -33 21 -82 29 -110 7 -27 27 -108 44 -180 18 -71 37 -148 43
-170 6 -22 14 -56 18 -75 4 -19 25 -98 45 -175 20 -77 44 -169 52 -205 8 -36
18 -81 23 -100 4 -19 39 -159 78 -310 38 -151 71 -286 74 -300 3 -14 22 -88
43 -165 20 -77 41 -158 46 -180 17 -85 47 -192 58 -213 l12 -22 439 0 439 0
15 28 c8 15 17 46 21 67 4 22 13 63 20 90 16 60 35 137 45 185 4 19 31 125 60
235 29 110 56 218 60 240 4 22 30 128 59 235 57 221 50 193 91 365 34 146 55
227 75 300 8 28 37 145 65 260 28 116 56 224 60 240 5 17 30 116 55 220 25
105 51 208 57 230 6 22 14 56 18 75 4 19 24 98 45 175 39 147 60 234 74 300 5
22 32 130 61 240 29 110 56 218 60 240 4 22 19 85 34 140 15 54 24 105 21 112
-3 11 -43 13 -182 11 l-178 -3 -11 -40 c-14 -47 -40 -148 -59 -225 -7 -30 -21
-84 -30 -120 -9 -36 -23 -90 -30 -120 -7 -30 -21 -83 -29 -117 -9 -35 -23 -90
-31 -123 -8 -33 -22 -87 -30 -120 -8 -33 -22 -88 -31 -122 -8 -35 -22 -89 -30
-120 -8 -32 -21 -85 -29 -118 -8 -33 -22 -87 -30 -120 -8 -33 -22 -87 -30
-120 -8 -33 -21 -86 -29 -117 -8 -32 -20 -78 -27 -103 -6 -25 -15 -61 -19 -80
-7 -32 -68 -277 -105 -422 -8 -32 -22 -85 -30 -118 -8 -33 -22 -87 -30 -120
-8 -33 -22 -87 -30 -120 -8 -33 -21 -86 -29 -117 -31 -127 -45 -180 -57 -223
-6 -25 -15 -61 -19 -80 -5 -19 -18 -73 -30 -120 -13 -47 -26 -101 -30 -120
-10 -45 -56 -230 -74 -295 -8 -27 -17 -65 -21 -83 -9 -41 -18 -43 -194 -40
-162 3 -150 -3 -175 93 -37 146 -99 393 -106 425 -4 19 -13 55 -19 80 -45 175
-95 371 -101 400 -4 19 -12 53 -18 75 -6 22 -32 126 -58 230 -25 105 -52 213
-59 240 -26 95 -45 171 -75 300 -31 130 -50 206 -75 300 -8 28 -21 77 -29 110
-8 33 -19 79 -25 102 -6 23 -15 61 -20 85 -5 23 -33 133 -61 243 -29 110 -56
218 -60 240 -4 22 -31 130 -60 240 -50 192 -72 283 -90 371 -5 22 -14 52 -21
67 l-12 27 -180 0 -179 0 5 -37z"/>
<path d="M4735 4778 c-3 -7 -4 -1039 -3 -2293 l3 -2280 1750 -3 1750 -2 243
240 242 240 0 1813 0 1814 -242 241 -243 242 -1748 0 c-1389 0 -1749 -3 -1752
-12z m3562 -410 l63 -62 0 -1811 0 -1811 -63 -62 -63 -62 -1569 2 -1570 3 -3
1920 c-1 1056 0 1926 3 1933 3 9 327 12 1572 12 l1567 0 63 -62z"/>
<path d="M5337 4183 c-10 -9 -9 -1551 1 -1557 17 -10 2762 -10 2772 0 7 7 9
285 8 785 l-3 774 -1386 3 c-762 1 -1389 -1 -1392 -5z m2413 -372 c15 -30 14
-803 -2 -819 -9 -9 -251 -12 -1029 -12 -918 0 -1017 2 -1023 16 -3 9 -6 194
-6 413 0 295 3 400 12 409 9 9 250 12 1025 12 991 0 1013 0 1023 -19z"/>
<path d="M5358 2370 l-23 -6 0 -779 0 -780 1390 0 1390 0 3 778 c2 665 0 778
-12 783 -19 7 -2718 11 -2748 4z m2396 -376 c11 -28 7 -794 -4 -815 -10 -19
-32 -19 -1023 -19 -775 0 -1016 3 -1025 12 -9 9 -12 114 -12 409 0 219 3 404
6 413 6 14 106 16 1029 16 923 0 1023 -2 1029 -16z"/>
</g>
</svg>
