<svg transform="scale(1)" version="1.1" id="ifmmUGReYO" xmlns="http://www.w3.org/2000/svg" xmlns:xlink="http://www.w3.org/1999/xlink" x="0px" y="0px" viewBox="0 0 500 500" xml:space="preserve" class="pbimage_pbimage__wrapper__image__0LEis false"><title>Message Sent</title><style type="text/css"> .st0{fill:#FFFFFF;} .st1{fill:#231F20;} .st2{fill:#D1D3D4;} .st3{fill:#68E1FD;}
 .st3{fill:#68E1FD;}
 .st2{fill:#D1D3D4;}
 .st1{fill:#00296B;}
 .st0{fill:#FFFFFF;}</style><g id="RIght_hand"><path class="st0" d="M339.7,400.3l49.7-27.2c-11.5-17.5-12.3-27.5-14.2-41.3c-6.3-44.4-50.3-72.7-84.5-96c-2.9-2-5.9-3.9-9-5.6
		c-3.6-2-13.7-8-16.4-2.4c-2.5,5.4,3.8,15.1,6.9,19c-2.1-3.1-4.4-6.1-6.9-8.8c-0.8-1-1.8-1.8-3.1-2.2c-2.3-0.5-4.5,1.7-4.9,4
		s0.6,4.6,1.7,6.7c2.6,5.1,5.7,9.8,9.5,14c-2.5-2.8-11.8-13.5-11.6-2.7c0.2,6.8,3,13.3,7.9,18c-2.2-1.9-4.5-3.5-6.9-5
		c-0.7-0.5-1.6-0.8-2.5-0.6c-0.9,0.5-1.6,1.4-1.7,2.4c-1.6,6.9,2.3,11.9,4.9,17.8c2,4.6,3.2,9,5.9,13.4
		c9.5,16.1,19.3,27.2,30.1,42.4C297.6,349.8,339.6,400.4,339.7,400.3z" fill="#FFFFFF"></path><path class="st1" d="M339.8,401c-0.5,0-1.4-1.1-7.3-8.2c-4-4.8-9.4-11.2-14.8-17.8c-5.1-6.1-21.7-26.2-23.5-28.7
		c-3.6-5.1-7.2-9.8-10.6-14.3c-6.8-9-13.2-17.5-19.5-28.2c-1.6-2.8-2.9-5.7-4-8.7c-0.6-1.5-1.2-3.1-1.9-4.8
		c-0.5-1.2-1.2-2.4-1.8-3.6c-2.3-4.6-4.5-8.9-3.2-14.6c0.4-1.6,1.1-2.6,2.1-2.9c1.1-0.2,2.1,0.1,3,0.7c0.7,0.4,1.4,0.9,2.1,1.3
		c-2.6-4.1-4.1-8.8-4.2-13.7c0-3,0.6-4.7,2-5.3c1.2-0.4,2.6,0.1,4.2,1.1c-1.5-2.2-2.8-4.5-4-6.8c-1.1-2.2-2.1-4.7-1.8-7.2
		c0.3-1.6,1.1-3,2.4-3.9c0.9-0.7,2.1-0.9,3.3-0.7c1.2,0.4,2.4,1.1,3.2,2.1c-1.4-3.4-2.2-7-0.9-9.7c0.5-1.2,1.5-2,2.7-2.4
		c4-1.3,10.4,2.2,13.8,4.1l0.8,0.4c3.1,1.7,6.1,3.6,9,5.7l4,2.7c33.3,22.7,74.7,50.8,80.8,93.8l0.3,2.4c1.7,12.5,3.1,22.3,13.8,38.6
		c0.1,0.2,0.1,0.4,0.1,0.6c-0.1,0.2-0.2,0.3-0.4,0.4L340,400.9l0,0C340,401,339.9,401,339.8,401z M339.7,400.3L339.7,400.3z
		 M256.1,270.6c-0.1,0-0.2,0-0.3,0c-0.7,0.2-1,1.1-1.2,1.9c-1.2,5.2,0.9,9.3,3.1,13.7c0.6,1.2,1.2,2.4,1.8,3.6
		c0.7,1.6,1.4,3.2,2,4.8c1,2.9,2.3,5.8,3.9,8.5c6.2,10.6,12.7,19.1,19.5,28c3.4,4.5,7,9.2,10.6,14.3c3,4.2,40.7,49.3,44.5,53.9
		l48.6-26.6c-10.5-16.2-11.9-26.1-13.6-38.6l-0.3-2.3c-6-42.4-47.1-70.3-80.2-92.8l-4-2.7c-2.9-2-5.8-3.9-8.9-5.6l-0.8-0.4
		c-3-1.6-9.3-5.1-12.7-4c-0.9,0.3-1.6,0.9-2,1.8c-1.7,3.5,1,9.6,4.1,14.4c1,1.3,1.9,2.6,2.8,3.9c0.2,0.3,0.2,0.7-0.1,1
		s-0.7,0.2-1-0.1l0,0c-0.1-0.2-1.3-1.6-2.7-3.8c-1.3-1.7-2.7-3.4-4.2-5c-0.7-0.9-1.6-1.6-2.7-2c-0.8-0.1-1.5,0-2.2,0.5
		c-1,0.7-1.6,1.7-1.8,2.9c-0.3,2.1,0.6,4.3,1.6,6.3c2.5,5,5.7,9.6,9.4,13.8l0,0c0.3,0.3,0.2,0.7,0,1c0,0,0,0,0,0
		c-0.3,0.3-0.7,0.2-1-0.1l0,0l0,0l-0.1-0.1c-5.8-6.5-8.2-7.4-9.2-7c-0.8,0.3-1.1,1.7-1.1,4c0.1,6.6,2.9,12.9,7.7,17.5
		c0.2,0.3,0.1,0.8-0.2,1c-0.2,0.2-0.5,0.2-0.8,0c-2.1-1.9-4.4-3.5-6.8-5C257.2,270.9,256.7,270.7,256.1,270.6z" fill="#00296B"></path><path class="st1" d="M425.3,432.2l3-0.3c0,0-31.5-72.8-32.6-72.2s-65.6,40.4-65.6,40.4l13.9,32.1H425.3z" fill="#00296B"></path><path class="st1" d="M425.3,433h-81.2c-0.3,0-0.5-0.2-0.6-0.4l-13.9-32.1c-0.1-0.3,0-0.7,0.3-0.9c2.6-1.6,64.5-39.8,65.6-40.4
		c0.2-0.1,0.4-0.1,0.6,0c1.5,0.5,18.8,39.8,32.9,72.6c0.2,0.4,0,0.8-0.4,0.9c-0.1,0-0.1,0.1-0.2,0.1l-3,0.3L425.3,433z M344.5,431.6
		h80.7l2.1-0.2c-11.6-26.9-29-66.2-31.7-70.7c-4.8,2.9-43.3,26.7-64.5,39.8L344.5,431.6z" fill="#00296B"></path></g><g id="Smartphone"><path class="st0" d="M320.9,382l-96-23.6c-3.9-1-6.2-4.9-5.3-8.7l50.6-205.4c1-3.9,4.9-6.2,8.7-5.3l96,23.6c3.9,1,6.2,4.9,5.3,8.7
		l-50.6,205.4C328.7,380.6,324.8,383,320.9,382z"></path><path class="st1" d="M322.6,383c-0.6,0-1.3-0.1-1.9-0.2l-96.1-23.6l0,0c-4.2-1-6.8-5.3-5.8-9.6l50.6-205.4c1-4.2,5.3-6.8,9.6-5.8
		c0,0,0,0,0,0l96.1,23.6c4.2,1,6.8,5.3,5.8,9.6c0,0,0,0,0,0L330.3,377C329.4,380.5,326.3,383,322.6,383L322.6,383z M225,357.7
		l96,23.6c3.5,0.9,7-1.3,7.9-4.8l50.5-205.4c0.9-3.5-1.3-7-4.7-7.9c0,0,0,0,0,0l-96-23.6c-3.5-0.9-7,1.3-7.9,4.8c0,0,0,0,0,0
		l-50.6,205.4C219.4,353.3,221.5,356.9,225,357.7L225,357.7z"></path><rect class="st2" x="214.3" y="204.3" transform="matrix(0.239 -0.971 0.971 0.239 -18.4276 486.5944)" width="173.9" height="101.5"></rect><path class="st0" d="M283.9,365.8l-18.8-4.6c-2.4-0.6-3.8-3-3.2-5.4l1.8-7.2c0.6-2.4,3-3.8,5.4-3.2l18.8,4.6c2.4,0.6,3.8,3,3.2,5.4
		l-1.8,7.2C288.7,364.9,286.3,366.4,283.9,365.8z"></path><path class="st2" d="M285,366.7c-0.4,0-0.8-0.1-1.2-0.1l-18.8-4.6l0,0c-2.8-0.7-4.4-3.4-3.8-6.2c0,0,0,0,0,0l1.8-7.2
		c0.7-2.8,3.4-4.4,6.2-3.8c0,0,0,0,0,0l18.7,4.6c2.8,0.7,4.4,3.4,3.8,6.2c0,0,0,0,0,0l-1.8,7.2C289.4,365,287.4,366.7,285,366.7z
		 M265.4,360.5l18.7,4.6c2,0.5,4-0.7,4.5-2.8l1.8-7.2c0.5-2-0.7-4-2.7-4.5c0,0,0,0,0,0l-18.7-4.6c-2-0.5-4,0.7-4.5,2.7c0,0,0,0,0,0
		l-1.8,7.1C262.1,358,263.3,360,265.4,360.5C265.3,360.5,265.3,360.5,265.4,360.5L265.4,360.5z"></path><path class="st2" d="M342.6,165.4c-0.1,0-0.1,0-0.2,0l-28-6.9c-0.4-0.1-0.6-0.5-0.5-0.8c0,0,0,0,0,0c0.1-0.4,0.5-0.6,0.8-0.5
		l28.1,6.9c0.4,0.1,0.6,0.5,0.5,0.8C343.2,165.2,343,165.5,342.6,165.4L342.6,165.4z"></path><path class="st2" d="M310.6,157.6h-0.2l-3.8-0.9c-0.4-0.1-0.6-0.4-0.6-0.8c0.1-0.4,0.4-0.6,0.8-0.6c0,0,0.1,0,0.1,0l3.8,0.9
		c0.4,0.1,0.6,0.5,0.5,0.8c0,0,0,0,0,0C311.2,157.4,311,157.6,310.6,157.6z"></path><path class="st1" d="M320.2,308.9l-58.6-13.6c-5.2-1.2-8.4-6.4-7.2-11.6l1-4.2c1.2-5.2,6.4-8.4,11.6-7.2l58.6,13.6
		c5.2,1.2,8.4,6.4,7.2,11.6l-1,4.2C330.6,306.8,325.4,310.1,320.2,308.9z"></path><path class="st1" d="M322.4,309.8c-0.8,0-1.6-0.1-2.3-0.3l-58.6-13.6c-5.6-1.3-9-6.8-7.7-12.4l1-4.2c1.3-5.6,6.9-9,12.4-7.7
		l58.6,13.6c5.6,1.3,9,6.9,7.7,12.4l-1,4.2C331.4,306.5,327.2,309.8,322.4,309.8z M264.8,272.7c-4.1,0-7.7,2.9-8.7,6.9l-1,4.2
		c-1.1,4.8,1.9,9.6,6.7,10.7c0,0,0,0,0,0l0,0l58.6,13.6c4.8,1.1,9.6-1.9,10.7-6.7l1-4.2c1.1-4.8-1.9-9.6-6.7-10.7L266.8,273
		C266.2,272.8,265.5,272.7,264.8,272.7L264.8,272.7z"></path><path class="st0" d="M276.8,282.8c-0.2-0.4-0.5-0.8-0.9-1.1c-0.4-0.3-0.9-0.5-1.3-0.6c-0.3-0.1-0.6-0.1-0.9-0.1
		c-0.3,0-0.5,0.1-0.8,0.1c-0.3,0.1-0.5,0.2-0.7,0.5c-0.2,0.2-0.3,0.5-0.4,0.8c-0.1,0.4,0,0.9,0.2,1.2c0.3,0.4,0.7,0.7,1.1,0.9
		c0.5,0.3,1,0.6,1.5,0.9c0.5,0.3,1,0.7,1.5,1.1c0.4,0.4,0.8,0.9,1,1.5c0.2,0.7,0.2,1.4,0,2.1c-0.1,0.7-0.4,1.3-0.9,1.9
		c-0.4,0.5-0.9,0.9-1.5,1.1c-0.6,0.3-1.2,0.4-1.8,0.5c-0.7,0-1.3,0-2-0.2c-0.9-0.2-1.7-0.5-2.4-1c-0.7-0.5-1.4-1.2-1.8-2l2.3-1.4
		c0.2,0.5,0.6,1,1,1.4c0.4,0.4,0.9,0.6,1.5,0.8c0.3,0.1,0.6,0.1,0.9,0.1c0.3,0,0.6-0.1,0.9-0.2c0.3-0.1,0.5-0.3,0.7-0.5
		c0.2-0.2,0.4-0.5,0.4-0.8c0.1-0.5,0-0.9-0.2-1.3c-0.3-0.4-0.7-0.7-1.1-1c-0.4-0.3-0.9-0.6-1.5-0.9c-0.5-0.3-1-0.7-1.5-1.1
		c-0.4-0.4-0.8-0.9-1-1.5c-0.2-0.7-0.2-1.4,0-2.1c0.1-0.7,0.4-1.3,0.9-1.8c0.4-0.5,0.9-0.8,1.5-1.1c0.6-0.2,1.2-0.4,1.9-0.4
		c0.7,0,1.3,0,2,0.2c0.7,0.2,1.4,0.4,2.1,0.8c0.7,0.4,1.2,0.9,1.6,1.5L276.8,282.8z"></path><path class="st0" d="M282.1,280.8l9.4,2.1l-0.5,2.3l-6.9-1.6l-0.8,3.5l6.5,1.5l-0.5,2.3l-6.5-1.5l-0.9,3.8l7.2,1.6l-0.5,2.3
		l-9.7-2.2L282.1,280.8z"></path><path class="st0" d="M294.2,283.5l3.3,0.8l4.4,12l0,0l2.4-10.5l2.5,0.6l-3.2,14.1l-3.2-0.7l-4.5-12.4l0,0l-2.5,10.8l-2.5-0.6
		L294.2,283.5z"></path><path class="st0" d="M310.1,287.2l5.6,1.3c0.9,0.2,1.8,0.5,2.6,1c1.6,0.9,2.7,2.6,3.1,4.4c0.2,1.1,0.2,2.2-0.1,3.3
		c-0.4,2.1-1.8,3.8-3.7,4.8c-0.8,0.4-1.8,0.7-2.7,0.8c-0.9,0.1-1.8,0-2.7-0.2l-5.3-1.2L310.1,287.2z M311.8,300
		c0.7,0.2,1.5,0.3,2.3,0.2c0.7,0,1.4-0.2,2-0.4c0.6-0.3,1.1-0.7,1.6-1.2c0.5-0.6,0.8-1.3,1-2.1c0.2-0.7,0.2-1.5,0.1-2.3
		c-0.1-0.6-0.4-1.2-0.8-1.7c-0.4-0.5-0.9-0.9-1.5-1.2c-0.6-0.3-1.3-0.6-2.1-0.8l-2.3-0.5l-2.2,9.6L311.8,300z"></path></g><g id="right_thumb"><path class="st0" d="M378,351c0,0-9-75.3-17.8-83.5c-10.5-9.8-20-16.4-21.8-10.8s-3.4,14.9,11,25.4l-2.1,18.6
		c0,0-14.1,9.7-6.8,40.5"></path><path class="st1" d="M378,351.6c-0.3,0-0.6-0.2-0.6-0.6c-0.1-0.8-9.1-75.2-17.6-83.2c-12.9-12-17.6-13.1-19.4-12.6
		c-0.7,0.2-1.2,0.8-1.4,1.5c-2,6.4-2.6,15,10.7,24.7c0.2,0.1,0.3,0.4,0.3,0.6l-2.1,18.6c0,0.2-0.1,0.3-0.3,0.5
		c-0.1,0.1-13.6,9.9-6.5,39.8c0.1,0.3-0.1,0.7-0.5,0.8s-0.7-0.1-0.8-0.5c-6.9-29,4.9-39.5,6.8-41l2-18c-13.6-10.1-13-19.1-10.9-25.9
		c0.3-1.1,1.2-2.1,2.3-2.4c3.5-0.9,10.4,3.4,20.5,12.9c8.9,8.3,17.7,80.9,18,83.9C378.6,351.3,378.4,351.6,378,351.6
		C378,351.6,378,351.6,378,351.6L378,351.6z"></path></g><g id="letters"><path class="st0" d="M144.6,196.2l-27,71.5l67.8,12.1l0,0c1.1-3,3.5-5.1,5.2-4.7l7.9,1.8c0.7,0.1,1.6-0.5,2.1-1.6
		c0.4-0.8,0.6-1.6,0.6-2.5c0-0.4-0.3-0.8-0.7-1l-12.7-3.5c-0.5-0.2-0.8-0.6-0.9-1.1c-0.1-0.7,0-1.5,0.3-2.1c0.6-1.6,1.8-2.6,2.8-2.3
		l1.8,0.5l6.9,2.2c1,0.3,2.4-0.9,3-2.6c0.3-0.7,0.4-1.4,0.3-2.2c0-0.6-0.3-1.1-0.8-1.3l-13.5-5c-0.5-0.2-0.9-0.8-0.9-1.3
		c-0.1-1,0-2,0.6-2.9c0.7-1.3,1.8-1.9,2.7-1.6l18.2,7.6c0.8,0.4,2-0.7,2.6-2.3l0,0c0.6-1.6,0.5-3.2-0.4-3.6l-12.7-6
		c-0.5-0.3-0.8-0.8-0.8-1.4c-0.1-0.8,0-1.5,0.3-2.2c0.6-1.6,1.8-2.4,2.6-2l1.1,0.6l7.4,3.9c0.7,0.4,2,0.2,2.9-1.9
		c1.5-3.4,0-4.4-0.4-4.6l-7.1-4.6L144.6,196.2z"></path><path class="st1" d="M144.6,196.2l59,35.6l7.1,4.6c0.4,0.2,1.9,1.3,0.4,4.6c-0.7,1.6-1.6,2.1-2.3,2.1c-0.2,0-0.5-0.1-0.6-0.2
		l-7.4-4l-1.1-0.6c-0.1-0.1-0.3-0.1-0.5-0.1c-0.8,0-1.7,0.8-2.1,2.1c-0.3,0.7-0.4,1.5-0.3,2.2c0,0.6,0.3,1.1,0.8,1.4l12.7,6
		c0.8,0.4,1,2,0.4,3.6l0,0c-0.5,1.4-1.5,2.4-2.3,2.4c-0.1,0-0.2,0-0.3-0.1l-18.2-7.6c-0.2-0.1-0.3-0.1-0.5-0.1
		c-1,0.1-1.8,0.8-2.2,1.7c-0.5,0.9-0.7,1.9-0.6,2.9c0,0.6,0.4,1.1,0.9,1.3l13.5,5c0.5,0.2,0.8,0.8,0.8,1.3c0.1,0.7,0,1.5-0.3,2.2
		c-0.6,1.6-1.7,2.7-2.7,2.7c-0.1,0-0.2,0-0.3,0l-6.9-2.2l-1.8-0.5c-0.1,0-0.2-0.1-0.3,0c-0.9,0-1.9,1-2.4,2.4
		c-0.3,0.7-0.4,1.4-0.3,2.1c0,0.5,0.4,1,0.9,1.1l12.7,3.5c0.4,0.2,0.7,0.6,0.7,1c0.1,0.9-0.1,1.7-0.6,2.5c-0.3,0.8-1.1,1.4-1.9,1.6
		h-0.2l-7.9-1.8c-0.1,0-0.3,0-0.4,0c-1.7,0-3.8,2-4.8,4.7l-67.8-12.1L144.6,196.2 M144.6,194.9c-0.5,0-1,0.3-1.2,0.8l-27,71.5
		c-0.1,0.4-0.1,0.8,0.1,1.1c0.2,0.3,0.5,0.6,0.9,0.6l67.8,12.1c0.1,0,0.1,0,0.2,0c0.5,0,1-0.3,1.2-0.8c1-2.6,2.7-3.9,3.6-3.9h0.1
		l7.9,1.7c0.2,0,0.3,0.1,0.5,0c1.4-0.1,2.5-1,3.1-2.3c0.6-1,0.8-2.1,0.7-3.3c-0.1-1-0.7-1.8-1.6-2.1l-12.6-3.4c0-0.1,0-0.1-0.1-0.2
		c-0.1-0.5,0-1,0.2-1.4c0.2-0.7,0.6-1.2,1.2-1.5l1.8,0.5l6.9,2.1c0.2,0.1,0.5,0.1,0.7,0.1c1.6,0,3.1-1.5,3.9-3.5
		c0.3-0.9,0.4-1.8,0.3-2.8c0-1-0.7-2-1.6-2.4l-13.5-5c0-0.1-0.1-0.2-0.1-0.4c-0.1-0.7,0.1-1.4,0.4-2.1c0.4-0.7,0.9-1,1-1l18.2,7.6
		c0.3,0.1,0.6,0.2,0.8,0.2c1.4,0,2.7-1.2,3.5-3.2c0.9-2.4,0.5-4.6-1-5.2l-12.6-6.1l0,0c0,0-0.1-0.1-0.1-0.4c-0.1-0.5,0-1.1,0.2-1.6
		c0.1-0.5,0.5-1,0.9-1.3l1.1,0.5l7.3,3.9c0.4,0.2,0.8,0.3,1.2,0.3c0.7,0,2.3-0.3,3.4-2.9c1.8-4.1-0.1-5.7-0.9-6.2l-7.1-4.6l-59-35.6
		C145,194.9,144.8,194.8,144.6,194.9L144.6,194.9z"></path><path class="st1" d="M165.2,256.7c-0.1,0-0.1,0-0.2,0c-0.2-0.1-0.3-0.2-0.4-0.4l-20.1-58c-0.1-0.3,0.1-0.7,0.4-0.8
		c0.3-0.1,0.7,0.1,0.8,0.4c0,0,0,0,0,0l19.8,57.3l36.8-23.3c0.3-0.2,0.7,0,0.9,0.3c0.1,0.3,0.1,0.6-0.2,0.8l-37.5,23.7
		C165.5,256.7,165.4,256.7,165.2,256.7z"></path><path class="st1" d="M117.6,268.3c-0.2,0-0.4-0.1-0.6-0.3c-0.2-0.3-0.1-0.7,0.2-0.9c0,0,0,0,0,0l43.2-24.5c0.3-0.2,0.7-0.1,0.9,0.2
		s0.1,0.7-0.2,0.9c0,0-0.1,0-0.1,0l-43.2,24.5C117.8,268.3,117.7,268.3,117.6,268.3z"></path><path class="st1" d="M185.3,280.5c-0.3,0-0.5-0.2-0.6-0.5l-9-30.8c-0.1-0.3,0.1-0.7,0.4-0.8s0.7,0.1,0.8,0.4l9,30.8
		c0.1,0.3-0.1,0.7-0.4,0.8C185.5,280.5,185.4,280.5,185.3,280.5z"></path><path class="st3" d="M240.7,68.3l-106.8,98.9L239,245.6l0,0c4.5-4.1,10.3-5.7,12.9-3.6l11.9,9.7c1,0.8,3,0.5,5-0.9
		c1.4-0.9,2.4-2.2,3.1-3.8c0.4-0.8,0.2-1.7-0.3-2.3L252.9,228c-0.7-0.7-0.9-1.8-0.5-2.7c0.4-1.3,1.2-2.5,2.3-3.4
		c2.4-2.2,5.3-2.9,6.7-1.6l2.6,2.4l9.9,9.5c1.4,1.4,4.8,0.5,7.3-1.9c1-1,1.8-2.1,2.3-3.5c0.5-1,0.4-2.1-0.3-2.9l-18.8-20
		c-0.7-0.9-0.8-2-0.5-3c0.6-1.8,1.8-3.4,3.4-4.5c2.3-1.6,4.7-1.7,5.9-0.4l24.6,28.5c1.1,1.3,4,0.5,6.4-1.7l0,0
		c2.4-2.2,3.5-5.1,2.5-6.5l-16.4-21.1c-0.6-0.9-0.6-2-0.2-3c0.5-1.4,1.3-2.6,2.4-3.6c2.3-2.2,5.1-2.7,6.2-1.2l1.4,1.9l9.2,13
		c0.9,1.2,3.2,2.1,6.6-0.8c5.4-4.5,3.7-7.5,3.2-8.3l-8.2-14L240.7,68.3z"></path><path class="st1" d="M240.7,68.3l70.3,110.8l8.2,14c0.5,0.8,2.2,3.8-3.2,8.3c-1.1,1.1-2.6,1.8-4.2,1.9c-0.9,0-1.8-0.4-2.4-1.1
		l-9.2-13l-1.4-1.9c-0.4-0.6-1.1-0.9-1.9-0.9c-1.6,0.1-3.2,0.8-4.3,2c-1.1,1-1.9,2.2-2.4,3.6c-0.4,1-0.4,2.1,0.2,3l16.4,21.1
		c1.1,1.4-0.1,4.3-2.5,6.5l0,0c-1.3,1.3-3,2.1-4.8,2.3c-0.6,0-1.2-0.2-1.6-0.6l-24.6-28.4c-0.6-0.6-1.4-0.9-2.2-0.9
		c-1.3,0.1-2.6,0.5-3.6,1.3c-1.6,1.1-2.8,2.7-3.4,4.5c-0.4,1-0.2,2.1,0.5,3l18.8,20c0.6,0.9,0.8,2,0.3,2.9c-0.5,1.3-1.3,2.5-2.3,3.5
		c-1.4,1.5-3.4,2.4-5.4,2.6c-0.7,0-1.4-0.2-1.9-0.6l-9.9-9.5l-2.6-2.4c-0.5-0.4-1.1-0.7-1.8-0.6c-3.3,0.4-6,2.6-7.1,5.7
		c-0.4,0.9-0.2,2,0.5,2.7l18.7,16.7c0.6,0.6,0.7,1.5,0.3,2.3c-0.6,1.5-1.7,2.9-3.1,3.8c-1,0.8-2.2,1.3-3.5,1.3c-0.5,0-1-0.1-1.5-0.4
		l-12-9.7c-0.9-0.7-2-1-3.1-0.9c-2.9,0-6.7,1.6-9.8,4.5l-105.2-78.3L240.7,68.3 M240.7,67.1c-0.3,0-0.6,0.1-0.9,0.3L133,166.3
		c-0.3,0.3-0.4,0.6-0.4,1c0,0.4,0.2,0.7,0.5,0.9l105.2,78.4c0.5,0.4,1.2,0.3,1.6-0.1c2.8-2.5,6.2-4.2,8.9-4.2c0.8,0,1.7,0.2,2.3,0.7
		l11.9,9.7c0.6,0.5,1.4,0.7,2.2,0.7c1.6-0.1,3-0.6,4.3-1.6c1.6-1.1,2.8-2.6,3.5-4.4c0.5-1.2,0.3-2.7-0.7-3.7l-18.7-16.7
		c-0.4-0.4-0.2-1.1-0.1-1.4c0.9-2.5,3.2-4.4,5.9-4.8c0.3,0,0.7,0.1,0.9,0.3l2.6,2.4l9.9,9.5c0.8,0.7,1.8,1,2.8,1
		c2.4-0.2,4.7-1.2,6.3-3c1.2-1.1,2.1-2.4,2.6-3.9c0.6-1.4,0.4-3-0.6-4.2l-18.8-20c-0.4-0.5-0.4-1.2-0.2-1.8c0.5-1.6,1.6-2.9,2.9-3.8
		c0.8-0.6,1.8-1,2.9-1.1c0.5,0,0.9,0.1,1.3,0.4l24.6,28.5c0.7,0.7,1.6,1.1,2.6,1.1c2.2-0.2,4.2-1.1,5.7-2.7c3-2.8,4.1-6.3,2.6-8.2
		l-16.4-21.1c-0.3-0.6-0.3-1.2,0-1.8c0.4-1.2,1.1-2.2,2.1-3c0.9-1,2.1-1.6,3.4-1.7c0.3,0,0.6,0.1,0.8,0.3l1.4,2l9.2,12.9
		c0.8,1.1,2.1,1.7,3.4,1.7c1.9-0.1,3.7-0.9,5.1-2.2c5.8-4.8,4.4-8.6,3.5-9.9l-8.2-13.9L241.7,67.7c-0.2-0.3-0.5-0.5-0.9-0.6
		L240.7,67.1z"></path><path class="st1" d="M225,188.6c-0.2,0-0.3-0.1-0.5-0.2c-0.1-0.1-0.2-0.3-0.2-0.5l15.2-116c0-0.3,0.4-0.6,0.7-0.6c0,0,0,0,0,0
		c0.4,0,0.6,0.4,0.6,0.7c0,0,0,0,0,0l-15,115.2l83.2-8.5c0.4,0,0.6,0.3,0.7,0.6c0,0.3-0.2,0.6-0.5,0.6l-84,8.5L225,188.6z"></path><path class="st1" d="M133.9,167.9c-0.3,0-0.6-0.3-0.6-0.6c0-0.3,0.3-0.6,0.6-0.7l94.5-5c0.3,0,0.6,0.2,0.7,0.5c0,0,0,0,0,0.1
		c0,0.4-0.2,0.7-0.6,0.7c0,0,0,0,0,0L133.9,167.9L133.9,167.9z"></path><path class="st1" d="M239,246.2h-0.1c-0.3-0.1-0.6-0.4-0.5-0.7c0,0,0,0,0,0l10.9-60.2c0.1-0.3,0.4-0.6,0.7-0.5s0.6,0.4,0.5,0.7l0,0
		l-10.9,60.2C239.6,246,239.3,246.2,239,246.2z"></path><path class="st0" d="M285.1,262.8c-0.1,0-0.3,0-0.4-0.1l-58.3-42.5c-0.3-0.2-0.3-0.6-0.1-0.9c0,0,0,0,0,0c0.2-0.3,0.6-0.3,0.9-0.1
		l58.3,42.5c0.3,0.2,0.4,0.6,0.1,0.9c0,0,0,0,0,0C285.5,262.7,285.3,262.8,285.1,262.8z"></path><path class="st0" d="M293.1,246.2c-0.2,0-0.3-0.1-0.5-0.2l-19.3-20.2c-0.2-0.3-0.2-0.7,0-0.9c0.3-0.2,0.7-0.2,0.9,0l19.3,20.2
		c0.2,0.2,0.2,0.7,0,0.9C293.5,246.2,293.3,246.2,293.1,246.2z"></path><path class="st0" d="M305.8,244.8c-0.2,0-0.3-0.1-0.5-0.2l-11.9-12.3c-0.2-0.2-0.2-0.7,0-0.9c0.2-0.2,0.6-0.3,0.9,0c0,0,0,0,0,0
		l11.9,12.3c0.2,0.2,0.3,0.6,0,0.9c0,0,0,0,0,0C306.1,244.7,306,244.8,305.8,244.8z"></path><path class="st0" d="M317.3,238.6c-0.2,0-0.4-0.1-0.5-0.2c-11.2-14.3-28.3-35.8-29.1-36.7c-0.3-0.2-0.4-0.5-0.2-0.8c0,0,0,0,0-0.1
		c0.2-0.3,0.6-0.4,0.9-0.2c0.7,0.4,18.7,23.3,29.4,36.9c0.2,0.3,0.2,0.7-0.1,0.9c0,0,0,0,0,0C317.5,238.6,317.4,238.6,317.3,238.6z"></path><path class="st0" d="M291.4,255.7c-0.1,0-0.3,0-0.4-0.1l-11.7-8.6c-0.3-0.1-0.5-0.5-0.3-0.8c0.1-0.3,0.5-0.5,0.8-0.3
		c0.1,0,0.2,0.1,0.2,0.2l11.7,8.6c0.3,0.2,0.4,0.6,0.1,0.9C291.8,255.6,291.6,255.7,291.4,255.7L291.4,255.7z"></path><path class="st0" d="M322.5,217.6c-0.2,0-0.4-0.1-0.5-0.3l-15.8-24.1c-0.2-0.3-0.1-0.7,0.2-0.9c0,0,0,0,0,0
		c0.3-0.2,0.7-0.1,0.9,0.2l15.8,24.1c0.2,0.3,0.1,0.7-0.2,0.9c0,0,0,0,0,0C322.7,217.5,322.6,217.6,322.5,217.6z"></path><path class="st0" d="M286.1,79.1l-43.6,22.6l27.2,34.9l0,0c1.8-0.9,3.9-0.9,4.5,0l3,4.2c0.2,0.4,0.9,0.4,1.7,0.1
		c0.5-0.2,1-0.5,1.3-0.9c0.2-0.2,0.2-0.5,0.1-0.8l-4.6-7.1c-0.2-0.3-0.1-0.7,0.1-0.9c0.3-0.4,0.6-0.7,1-0.9c1-0.5,2-0.5,2.3,0.1
		l0.6,1l2.4,4c0.3,0.6,1.5,0.6,2.5,0c0.4-0.2,0.8-0.5,1.1-0.9c0.2-0.3,0.3-0.7,0.2-1l-4.3-8.2c-0.1-0.3-0.1-0.7,0.1-1
		c0.4-0.5,0.9-0.9,1.5-1.2c0.9-0.3,1.7-0.1,1.9,0.4l5.4,11.4c0.2,0.5,1.2,0.5,2.2,0l0,0c1-0.5,1.6-1.4,1.4-1.9l-3.5-8.3
		c-0.1-0.3,0-0.7,0.2-1c0.3-0.4,0.7-0.7,1.1-0.9c1-0.5,1.9-0.4,2.1,0.2l0.3,0.7l1.8,5c0.2,0.5,0.9,0.9,2.2,0.3
		c2.1-1,1.9-2.1,1.8-2.4l-1.4-5.2L286.1,79.1z"></path><path class="st1" d="M286.1,79.1l12.9,42.3l1.4,5.3c0.1,0.3,0.4,1.4-1.8,2.4c-0.4,0.2-0.7,0.3-1.1,0.3c-0.5,0-0.9-0.2-1.1-0.6
		l-1.8-5l-0.3-0.7c-0.2-0.3-0.5-0.5-0.9-0.5c-0.4,0-0.8,0.1-1.2,0.3c-0.4,0.2-0.8,0.5-1.1,0.9c-0.2,0.3-0.3,0.7-0.2,1l3.4,8.2
		c0.2,0.5-0.4,1.4-1.4,1.9l0,0c-0.4,0.2-0.9,0.4-1.4,0.4c-0.3,0-0.7-0.1-0.9-0.4l-5.4-11.4c-0.2-0.4-0.7-0.6-1.1-0.6
		c-0.3,0-0.6,0.1-0.8,0.2c-0.6,0.2-1.1,0.6-1.5,1.2c-0.2,0.3-0.3,0.7-0.1,1l4.3,8.2c0.1,0.3,0.1,0.7-0.2,1c-0.3,0.4-0.6,0.7-1.1,0.9
		c-0.5,0.3-1,0.4-1.5,0.4c-0.4,0-0.8-0.1-1-0.4l-2.4-4l-0.6-1c-0.2-0.3-0.6-0.5-1-0.4c-0.5,0-0.9,0.1-1.3,0.4
		c-0.4,0.2-0.8,0.5-1,0.9c-0.2,0.3-0.2,0.6-0.1,0.9l4.6,7.1c0.1,0.3,0.1,0.6-0.1,0.8c-0.3,0.4-0.8,0.8-1.3,0.9
		c-0.3,0.1-0.6,0.2-0.9,0.2c-0.3,0-0.6-0.1-0.8-0.3l-3-4.2c-0.5-0.5-1.1-0.8-1.8-0.7c-0.9,0-1.9,0.3-2.7,0.7l-27.2-34.9L286.1,79.1
		 M286.1,77.8c-0.2,0-0.4,0.1-0.6,0.2l-43.6,22.6c-0.6,0.3-0.9,1.1-0.5,1.7c0,0.1,0.1,0.1,0.1,0.2l27.2,34.9c0.2,0.3,0.6,0.5,1,0.5
		c0.2,0,0.4-0.1,0.6-0.1c0.6-0.3,1.4-0.5,2.1-0.6c0.3,0,0.6,0,0.8,0.2l3,4.2c0.4,0.6,1.2,0.9,1.9,0.9c0.4,0,0.9-0.1,1.3-0.2
		c0.8-0.3,1.5-0.8,2-1.4c0.5-0.6,0.5-1.5,0.1-2.2l-4.4-6.7c0.3-0.3,0.7-0.5,1.2-0.5l0,0l0.5,0.8l2.4,4c0.5,0.7,1.3,1.1,2.1,1.1
		c0.7,0,1.5-0.2,2.1-0.6c0.6-0.3,1.1-0.8,1.5-1.3c0.5-0.7,0.6-1.5,0.2-2.3l-4.2-8c0.2-0.3,0.5-0.5,0.8-0.6c0.1,0,0.3-0.1,0.4-0.1
		l0,0l5.4,11.3c0.4,0.7,1.2,1.2,2,1.1c0.7,0,1.4-0.2,2-0.5c1.6-0.9,2.5-2.3,2-3.5l-3.4-8.1c0.2-0.2,0.4-0.4,0.6-0.5
		c0.1-0.1,0.3-0.1,0.5-0.2l0.2,0.4l1.8,5c0.4,0.9,1.3,1.5,2.3,1.5c0.6,0,1.2-0.2,1.7-0.4c3-1.4,2.6-3.4,2.5-3.9l-1.4-5.2l-12.9-42.4
		C287.1,78.2,286.6,77.8,286.1,77.8L286.1,77.8z"></path><path class="st1" d="M298.4,121.9h-0.1l-28.1-4.7c-0.2,0-0.4-0.2-0.5-0.3c-0.1-0.2-0.1-0.4,0-0.6L285,80c0.1-0.3,0.5-0.5,0.8-0.4
		s0.5,0.5,0.4,0.8c0,0,0,0.1-0.1,0.1l-15,35.6l27.3,4.6c0.3,0.1,0.6,0.4,0.5,0.7C298.9,121.7,298.6,122,298.4,121.9L298.4,121.9z"></path><path class="st1" d="M273.7,109.1h-0.1l-31.2-6.8c-0.3-0.1-0.6-0.4-0.5-0.7c0,0,0,0,0,0c0.1-0.3,0.4-0.6,0.8-0.5l31.2,6.8
		c0.3,0.1,0.6,0.4,0.5,0.8C274.2,108.9,274,109.1,273.7,109.1L273.7,109.1z"></path><path class="st1" d="M269.7,137.2c-0.1,0-0.2,0-0.3-0.1c-0.3-0.1-0.5-0.5-0.3-0.8c0,0,0,0,0,0l8.9-18.6c0.2-0.3,0.5-0.5,0.9-0.3
		c0.3,0.2,0.5,0.5,0.3,0.9l0,0l-8.9,18.6C270.1,137.1,269.9,137.2,269.7,137.2z"></path></g><g id="Left_Hand"><path class="st0" d="M112.4,378.6c0,0,28.1-54.4,49.2-79c2.9-3.4,6.6-3.9,9.2-2.2c3.1,2,3.2,8.9,3.2,8.9s8-4.6,11.9-3.6
		s4.3,7,4.3,7s8.6-2.8,12.1,0.2s3.6,8.5,3.6,8.5s45.2-35.8,50.1-38.8c5-3,13.9,2.4,9.5,8.7c-2.7,4-25.6,26.3-32.9,33.5
		s-24.6,26.4-26.5,32.1s-3.6,12.1,8.2,12.9s22.2,2.9,27.3,7.1s8.5,10.8,5.9,12s-44-3.4-59.7,2.9s-36.2,29.4-36.2,29.4L112.4,378.6z"></path><path class="st1" d="M151.6,419c-0.2,0-0.4-0.1-0.5-0.2l-39.2-39.7c-0.2-0.2-0.3-0.5-0.1-0.8c0.3-0.5,28.4-54.8,49.3-79.1
		c3-3.4,7-4.4,10.1-2.3c2.6,1.7,3.2,6.2,3.4,8.3c2.3-1.2,8.1-4,11.4-3.2s4.4,4.9,4.7,6.7c2.3-0.6,8.8-2.1,12,0.6
		c2.7,2.3,3.5,5.8,3.8,7.7c6.9-5.5,44.6-35.3,49.2-38c3.3-2,7.8-0.6,10,1.8c2.1,2.2,2.3,5.6,0.4,7.9c-2.8,4-25.2,26-33,33.6
		c-7.7,7.4-24.5,26.4-26.3,31.8c-1.1,3.2-2.1,6.6-0.5,8.9c1.2,1.8,3.9,2.8,8.1,3.1c13.7,0.9,23,3.4,27.7,7.3c4.2,3.5,7.4,8.6,7,11.3
		c-0.1,0.8-0.5,1.5-1.2,1.9c-0.9,0.5-4.3,0.3-11.9,0c-13.9-0.5-37.2-1.4-47.9,2.9c-15.4,6.2-35.8,29-36,29.3
		C151.9,418.9,151.7,419,151.6,419L151.6,419z M113.3,378.5l38.3,38.8c3.3-3.6,21.4-23.2,36-29.1c11-4.4,34.5-3.5,48.5-3
		c5.4,0.2,10.4,0.4,11.2,0.1c0.3-0.2,0.5-0.5,0.5-0.8c0.2-2-2.4-6.6-6.6-10.1c-4.5-3.7-13.5-6-26.9-7c-4.7-0.3-7.7-1.5-9.1-3.7
		c-1.9-2.8-0.9-6.5,0.4-10.1c2.1-6.1,19.8-25.7,26.7-32.4c7.5-7.2,30.2-29.5,32.8-33.4c2-2.9,0.7-5.1-0.3-6.2
		c-1.9-2-5.7-3.1-8.3-1.5c-4.9,3-49.6,38.4-50.1,38.8c-0.2,0.2-0.5,0.2-0.7,0.1c-0.2-0.1-0.4-0.4-0.4-0.6c0-0.1-0.1-5.2-3.4-8
		s-11.4-0.1-11.4-0.1c-0.4,0.1-0.8-0.1-0.9-0.4c0-0.1,0-0.1,0-0.2c0-0.1-0.4-5.5-3.8-6.3c-2.9-0.7-9.2,2.3-11.4,3.6
		c-0.4,0.2-0.8,0-0.9-0.4c0-0.1-0.1-0.2-0.1-0.2c0-1.8-0.6-6.8-2.9-8.3c-2.5-1.6-5.8-0.8-8.2,2C142.4,323.1,116.1,373.2,113.3,378.5
		L113.3,378.5z"></path><path class="st1" d="M157,432.2l15.3-27.4c0,0-58.8-41.4-59.9-42s-40.8,69-40.8,69l3,0.3L157,432.2z"></path><path class="st1" d="M157,433H74.7l-3.1-0.3c-0.2,0-0.4-0.2-0.6-0.4c-0.1-0.2-0.1-0.5,0-0.7c0.1-0.2,10-17.6,20-34.7
		c20.5-35.3,20.9-35,21.7-34.6c1.1,0.6,53.9,37.8,60,42c0.3,0.2,0.4,0.6,0.2,0.9l-15.3,27.4C157.5,432.8,157.3,433,157,433z
		 M72.8,431.3l2,0.2h81.8l14.8-26.4c-19.3-13.6-54.6-38.4-58.9-41.3C109.4,367.8,87.5,405.5,72.8,431.3z"></path></g></svg>