<svg transform="scale(1)" version="1.1" id="yFMl0F7PVq" xmlns="http://www.w3.org/2000/svg" xmlns:xlink="http://www.w3.org/1999/xlink" x="0px" y="0px" viewBox="0 0 500 500" xml:space="preserve" class="pbimage_pbimage__wrapper__image__0LEis false"><title>Page Not Found 6</title><style type="text/css"> .st0{fill:#128FFF;} .st1{fill:#111111;} .st2{fill:#FFFFFF;}
 .st2{fill:#FFFFFF;}
 .st1{fill:#111111;}
 .st0{fill:#128FFF;}</style><g id="tab"><g id="presentation"><path class="st0" d="M33.7,99.4c0.6,43.3,1.2,195.5,1.8,238.7c0.1,4.6,0.8,10.1,5.7,12.1c2.2,0.9,4.8,0.8,7.3,0.7l36.9-1.4
			c39.5-1.5,342.9,0.4,382.3-1.1c8.2-0.3,17.9-1.3,22.2-7.2c2.4-3.4,2.4-7.5,2.4-11.4c-0.6-39.5,0.7-194.1,0.1-233.6
			c-0.1-4.3-0.3-9-3.4-12.4c-4.7-5.1-13.7-5.2-21.5-5c-32.9,1-331.8,3.1-364.7,2.3c-16.3-0.4-32.7-0.5-49-1.3
			C39.3,79.3,33.6,88.3,33.7,99.4z"></path></g><path class="st1" d="M492.5,112.1c0-5.4,0-10.6-0.1-15.8c-0.1-4.3-0.3-9-3.4-12.4c-4.7-5.1-13.7-5.2-21.5-5
		c-32.9,1-331.8,3.1-364.7,2.3c-16.3-0.4-32.7-0.5-49-1.3c-14.5-0.7-20.2,8.4-20,19.5c0.1,4.2,0.1,8.5,0.2,12.7L492.5,112.1z" fill="#111111"></path><path class="st2" d="M53.3,94.8c-0.9,2.8,0,5.9,2.1,7.9c2.2,1.9,5.3,2.4,8,1.2c2.7-1.3,4.3-4.1,4.1-7
		C66.9,88.9,55.8,86.8,53.3,94.8z" fill="#FFFFFF"></path><path class="st2" d="M72.2,94c-0.9,3.8,1.2,7.7,4.9,9c3.8,1,7.8-1,9.1-4.7C89.1,89.2,74.8,84.5,72.2,94z" fill="#FFFFFF"></path><path class="st2" d="M91.3,92.1c-0.6,1.8-0.6,3.7-0.2,5.5c1.1,3.6,5,5.7,8.6,4.6c3.2-1,5.2-4.1,4.8-7.4
		C103.7,88.2,93.5,84.2,91.3,92.1z" fill="#FFFFFF"></path></g><g id="_404"><path class="st1" d="M94.4,224.1c-3.9,4.5-8,10.7-5,16.5c2.6,5,8.9,6.6,14.4,7.4c16.3,2.4,32.9,3.4,49.4,2.8
		c-1.6,11.8-2.7,23.7-3.1,35.7c-0.1,3.6-0.2,7.3,0.9,10.8s3.6,7,7,8.4c4.4,1.7,9.2-0.2,11.9-3.6s3.8-7.8,4.5-12.2
		c2.1-13,1.7-26.5,1.4-39.9c4.2-2,9.3-1.5,13.9-2.4s9.4-4.4,8.6-9.1c-0.7-4-5-6.7-9.1-7.5s-8.1-0.4-12.1-1.3
		c0.9-3.1,1.7-6.3,1.4-9.7s-1.9-6.9-4.9-8.6c-4.1-2.4-9.2-0.5-11.9,2.9s-3.5,7.9-4.2,12.3l-31.9,2c-2.3,0.1-5.6-0.5-5.8-2.8
		c0-1.1,0.5-2.1,1.3-2.8c19.5-22.1,44.5-39.4,61.1-63.8c1.7-2.3,3-4.9,3.6-7.6c0.6-3-0.3-6.1-2.5-8.2c-3.6-3.4-9.2-2.1-13.2,0.1
		c-6.1,3.3-11.1,8.2-14.7,14.1c-2.5,4.1-30.9,34.6-42.2,46.1C106.9,210.3,100.5,217.1,94.4,224.1z"></path><path class="st1" d="M333.8,223.8c-3.9,4.5-8,10.7-5,16.5c2.6,5,8.9,6.6,14.4,7.4c16.3,2.4,32.9,3.4,49.4,2.8
		c-1.6,11.8-2.7,23.7-3.1,35.7c-0.1,3.6-0.2,7.3,0.9,10.8s3.6,7,7,8.4c4.4,1.7,9.2-0.2,11.9-3.5s3.8-7.8,4.5-12.2
		c2.1-13,1.7-26.5,1.4-39.9c4.2-2,9.3-1.5,13.9-2.4s9.4-4.4,8.5-9.1c-0.7-4-5-6.7-9-7.5s-8.1-0.4-12.1-1.3c0.9-3.1,1.7-6.3,1.4-9.7
		s-2-6.9-5-8.6c-4.1-2.4-9.2-0.5-11.9,2.9s-3.5,7.9-4.2,12.3l-31.9,2c-2.3,0.1-5.6-0.5-5.8-2.8c0-1.1,0.5-2.1,1.3-2.8
		c19.6-22.1,44.6-39.4,61.1-63.8c1.7-2.3,3-4.9,3.6-7.6c0.6-3-0.3-6.1-2.5-8.2c-3.6-3.4-9.2-2.1-13.2,0.1
		c-6.1,3.3-11.1,8.2-14.7,14.1c-2.5,4.1-30.9,34.6-42.2,46.2C346.2,210,339.8,216.8,333.8,223.8z"></path><path class="st1" d="M303.5,188.4c-4-13.5-8.9-21.7-20.7-29.6c-8.6-5.7-17.8-9.2-27.6-7.6c-13.1,2.2-23.4,11.8-29.2,23.3
		s-7.9,24.9-8.9,38.1c-1.1,14.1-1.2,28.2-0.3,42.3c0.6,8.9,1.5,17.9,4.6,26.5s8.3,16.9,15.9,22.2c10.6,7.4,24.7,8,35.8,3.2
		s19.2-14.3,24.2-25.1s7.4-22.9,8.9-35.1C308.6,227.6,309.3,207.7,303.5,188.4z M281.7,221.2c0.5,12.6-1.6,25-3.9,37.2
		c-0.9,4.8-1.9,9.8-4.4,13.9s-6.8,7.4-11.8,7.4c-5.9,0-11.4-4.5-14.4-9.8s-3.7-11.4-4.2-17.2c-0.8-11.2-0.9-22.4-0.1-33.5
		c0.4-7.1,1.2-14.4,3.5-21.1c2.7-7.9,13.2-23.7,23.7-14C279,192.5,281.3,210.5,281.7,221.2L281.7,221.2z"></path></g><g id="loop"><path class="st0" d="M343.1,220.8c-4.2,31.6-28.4,61.3-59.9,72.9c-30.9,11.4-66.8,4.2-87.2-17.6c-13.6-14.5-20.3-34.6-20.2-54.7
		c0.1-21.6,8.2-44.7,25.5-60.1c13.6-12.1,31.6-18.5,49.6-20.9c15.3-1.9,30.9-1.9,46.2,0c11.3,1.4,19.8,9.7,26.8,17.7
		C339,175.3,346,198.1,343.1,220.8z"></path><path class="st2" d="M352.4,211.1c-3.7-36.1-27-69-61.8-80.8c-34-11.5-77.7,0.2-100.5,29.3c-14.7,18.8-20.1,42.8-18.4,65
		c1.1,14,4.7,27.6,9.7,40.5c2.4,6.1,7.1,12.7,8.5,19.1c1.6,7.4-1.2,9.5-6.2,16.4c-19.6,27.1-39,53.9-58.2,80.4
		c-4.2,5.8-8.6,12-9.4,19.1s3.4,15.2,10.5,15.9c7.8,0.8,13.6-6.9,17.7-13.7l63-104.5c21.8,11.9,47,15.9,71.4,11.3
		c25.4-5,49.5-20.6,62.5-42.7C351.2,249.5,354.2,229.7,352.4,211.1z M273.9,286.2c-30.8,8.3-64.4-3.7-80.2-27.8
		c-15.6-23.9-12.9-58.3,6.1-82.6c18-22.9,58.5-41.8,86-29.2c28.1,12.8,50.7,39.1,47.9,71.4C330.9,248.7,305.3,277.7,273.9,286.2
		L273.9,286.2z"></path><path class="st1" d="M127.6,417c-0.4,0-0.8,0-1.2-0.1c-3-0.4-5.8-1.9-7.7-4.4c-2.7-3.5-4-8-3.5-12.4c0.9-7.5,5.7-14.1,9.6-19.5
		l19.3-26.7c12.9-17.8,25.9-35.7,38.9-53.8c0.7-1,1.4-1.9,2-2.7c3.7-4.9,5.3-7.1,4-13.1c-0.8-3.8-2.9-7.7-4.8-11.5
		c-1.3-2.4-2.5-5-3.6-7.5c-5.6-14.5-8.8-27.8-9.8-40.8c-1.9-24.6,4.7-47.9,18.6-65.6c22.5-28.8,66.1-41.5,101.4-29.6
		c34,11.5,58.5,43.4,62.3,81.4c1.5,14.3,0.7,35.7-11.3,55.9c-12.8,21.6-36.4,37.7-63,43c-24.3,4.6-49.5,0.8-71.3-10.9l-62.7,103.9
		C141.1,409,135.4,417,127.6,417z M262.9,126.6c-27.6,0-55.7,12.3-72.3,33.4c-13.6,17.4-20.1,40.3-18.2,64.5
		c1,12.8,4.1,25.9,9.7,40.3c1,2.5,2.2,5,3.5,7.4c2,3.9,4.1,7.9,5,11.8c1.5,6.7-0.6,9.4-4.3,14.3c-0.6,0.8-1.3,1.7-2,2.7
		c-13.1,18-26,36-38.9,53.8L126,381.5c-4,5.5-8.5,11.7-9.3,18.8c-0.4,4,0.7,8.1,3.2,11.3c1.6,2.1,4,3.5,6.6,3.8
		c7.5,0.8,13.3-7.2,17-13.4l63-104.5c0.2-0.3,0.6-0.5,1-0.3c21.6,11.8,46.7,15.7,70.9,11.1c26.3-5.2,49.5-21,62-42.3
		c11.8-19.9,12.5-40.9,11.1-55l0,0c-3.8-37.4-27.9-68.9-61.3-80.1C281.4,128.1,272.2,126.6,262.9,126.6L262.9,126.6z M254,289.5
		c-24.6,0-48.2-11.5-60.9-30.8c-15.6-23.9-13-59,6.1-83.4c9.1-11.6,24-22.1,39.7-28.1c17.6-6.7,34.3-7.1,47.1-1.3
		c14.8,6.8,27.2,16.6,35.8,28.6c9.5,13.2,13.8,28.2,12.5,43.5c-2.7,30.7-28.6,60.3-60.3,68.9l-0.2-0.7l0.2,0.7
		C267.6,288.7,260.8,289.6,254,289.5z M266.2,143.4c-23.9,0-51.4,14.6-65.8,32.9c-18.8,23.9-21.3,58.3-6.1,81.7
		c12.3,18.9,35.5,30.1,59.6,30.1c6.7,0,13.3-0.9,19.8-2.6c31.1-8.4,56.5-37.4,59.2-67.6c1.3-14.9-2.9-29.6-12.2-42.5
		c-8.4-11.6-20.9-21.6-35.2-28.1C279.4,144.6,272.8,143.3,266.2,143.4L266.2,143.4z"></path><path class="st1" d="M123.8,407.9c-0.2,0-0.3-0.1-0.4-0.2c-0.1-0.2-0.1-0.5,0.2-0.7c0,0,0,0,0,0c2.8-1.7,4.8-4.6,6.6-7.2l74-109
		c0.2-0.2,0.5-0.3,0.7-0.1c28.6,18.4,71.1,16.4,101-4.7c30.9-21.8,46-61.6,35.9-94.7c-0.1-0.3,0.1-0.5,0.3-0.6
		c0.3-0.1,0.5,0.1,0.6,0.3c10.2,33.5-5.1,73.8-36.3,95.8c-30.1,21.2-72.8,23.3-101.7,5L131,400.3c-1.8,2.7-3.9,5.7-6.9,7.5
		C124,407.9,123.9,407.9,123.8,407.9z"></path><path class="st2" d="M194.2,330.3c0.4,8.5-4,16.5-8.3,24l-31.3,54.8c-4.6,8.1-9.6,16.5-17.6,21.3c-12.2,7.4-28,3.6-35.5-8.5
		c-3.1-5-4.4-11-3.6-16.9c1.2-9.9,7.8-18.2,14.1-26c15.7-19.4,31-39.5,47.2-59C170.8,305.9,193.2,310.4,194.2,330.3z"></path><path class="st1" d="M123.5,434.9c-5.2,0-10.2-1.4-14.6-4.2c-8.4-5.7-12.9-15.6-11.7-25.7c1.3-10.4,8.5-19.2,14.2-26.4
		c6.7-8.3,13.5-16.9,20.1-25.3c8.8-11.1,17.8-22.6,27-33.8c6-7.2,15.2-10.2,23.4-7.5c7.6,2.5,12.5,9.3,13,18.3l0,0
		c0.5,9-4.4,17.5-8.4,24.5l-31.3,54.8c-4.2,7.4-9.5,16.6-17.8,21.6C133.2,433.6,128.4,434.9,123.5,434.9z M175.8,312.5
		c-6.2,0.1-12.1,3-16,7.9c-9.2,11.2-18.3,22.7-27,33.8c-6.6,8.3-13.4,17-20.1,25.3c-5.7,7-12.7,15.7-13.9,25.6
		c-1.9,13.7,7.7,26.3,21.5,28.2c5.8,0.8,11.6-0.5,16.5-3.5c8-4.8,12.9-13.4,17.3-21l31.2-54.8c3.9-6.7,8.6-15.1,8.2-23.6l0,0
		c-0.4-8.3-4.9-14.6-11.9-16.9C179.7,312.8,177.8,312.5,175.8,312.5z"></path><path class="st1" d="M222.2,185.4c-0.8-1-1.4-2.1-1.7-3.3c-0.3-1.3,0-2.8,0.9-3.4c1.1-0.6,2.4,0.4,3.4,1.4l10.1,9.8
		c2.5-5.3,5.7-10.1,9.6-14.4c1.1-1.2,2.9-2.3,4-1s0.4,3.6-0.4,5.1c-2,4-4.5,7.7-7.3,11.2c-0.5,0.5-0.7,1.1-0.8,1.7
		c0,0.8,0.3,1.5,0.8,2.1l5.9,8.3c0.9,1.2,1.8,3,1.3,4.4c-0.3,0.9-1.3,1.3-2.2,1.1c-0.9-0.3-1.7-0.9-2.2-1.6
		c-1.5-1.5-2.8-3.3-3.8-5.1c-0.7-1.3-1.5-2.8-2.7-3.1c-1-0.2-2,0.6-2.8,1.3l-7.9,7.2c-1.1,1-2.7,1.9-3.6,0.6s0.3-3.1,0.9-4.7
		c1.2-3,5.9-7.1,6.6-8.2c0.9-1.6-2.5-3.7-3.7-4.8C224.9,188.5,223.5,187,222.2,185.4z"></path><path class="st1" d="M292.8,195.7c0.8,1,1.4,2.1,1.7,3.3c0.3,1.3,0,2.8-0.9,3.4c-1.1,0.6-2.4-0.4-3.4-1.4l-10.1-9.8
		c-2.5,5.3-5.7,10.1-9.6,14.4c-1.1,1.2-2.9,2.3-4,0.9s-0.4-3.6,0.4-5.1c2-4,4.5-7.7,7.3-11.2c0.5-0.5,0.8-1,0.8-1.7
		c0-0.8-0.3-1.5-0.8-2.1l-5.9-8.3c-0.9-1.2-1.9-3-1.3-4.4c0.3-0.9,1.3-1.3,2.2-1.1c0.9,0.3,1.6,0.9,2.2,1.6c1.5,1.6,2.8,3.3,3.8,5.1
		c0.7,1.3,1.5,2.8,2.7,3.1c1,0.2,2-0.6,2.8-1.3l7.9-7.2c1.1-1,2.7-1.9,3.6-0.6s-0.3,3.1-0.9,4.6c-1.2,3-5.9,7.1-6.6,8.2
		c-0.9,1.5,2.5,3.7,3.7,4.8C290.1,192.5,291.5,194,292.8,195.7z"></path><path class="st1" d="M210.9,242.2c-0.8,0.7-1.3,1.7-1.4,2.8c-0.1,1.4,1,2.7,2.4,2.9c1.2-0.1,2.4-0.6,3.3-1.5
		c23.3-16.5,51.5-20.5,77.3-11c5.5,2,10.9,4.7,16.5,5.9c1.4,0.3,3.1,0.2,3.6-1.4s-0.6-3.6-1.7-4.7c-9.9-10.7-23.3-13-35.9-13.2
		c-9.4-0.1-18.7,0.8-27.9,2.6c-8.1,1.6-17.1,3.1-24.2,8.5C218.9,236.1,214.6,237.9,210.9,242.2z"></path></g><g id="clouds"><path class="st2" d="M7.7,171c1.2-6.9,8.9-11.9,15.7-10.2c-2-4.7,0.2-10.1,4.9-12.1c2.6-1.1,5.6-1,8,0.4c0.7-9.5,9.5-17.8,19-17.8
		s18.4,8.1,19.1,17.7c6.1-1.1,12.5,3.8,13.1,9.9c3.2-4,9.6-4.1,13.8-1.3s6.8,7.5,8.5,12.3c1.5,4.2,2.3,9.4-0.7,12.7
		c-4.4,4.9-12.3,4-19,4c-22.1,0-44.2,0.1-66.4,0C15.4,186.5,6,180.9,7.7,171z"></path><path class="st1" d="M95.8,187.4c-1,0-1.9,0-2.8,0h-2.7H68.1c-14.5,0-29.5,0.1-44.3,0c-5.7,0-11.1-2.4-14.3-6.1
		c-2.4-2.9-3.4-6.7-2.6-10.4l0.7,0.1L7,170.9c0.7-3.7,2.9-6.8,6.1-8.8c2.7-1.8,6-2.6,9.2-2.2c-1.4-5.3,1.7-10.8,7-12.3
		c2.1-0.6,4.3-0.4,6.4,0.4c1.2-9.5,10-17.4,19.7-17.4h0c9.7,0,18.6,8,19.8,17.6c5.9-0.4,11.4,3.4,12.9,9.2c3.8-3.3,9.8-2.9,13.8-0.4
		c3.8,2.4,6.6,6.5,8.8,12.7c1.5,4.1,2.5,9.8-0.9,13.5S101,187.4,95.8,187.4z M90.3,185.8H93c5.9,0.1,12,0.2,15.7-3.8
		c2.9-3.1,1.9-8.2,0.6-12c-2-5.8-4.7-9.7-8.2-11.9c-3.8-2.4-9.9-2.6-12.8,1.2c-0.3,0.3-0.7,0.4-1.1,0.1c-0.2-0.1-0.2-0.3-0.3-0.5
		c-0.8-5.9-6.3-10.1-12.2-9.3c-0.2,0-0.4,0-0.6-0.1c-0.2-0.1-0.3-0.3-0.3-0.5c-0.7-9.1-9.3-17-18.3-17h0c-9.1,0-17.6,8-18.3,17.1
		c0,0.3-0.2,0.5-0.4,0.6c-0.2,0.1-0.5,0.1-0.7,0c-4.1-2.2-9.3-0.7-11.5,3.4c-1.2,2.3-1.4,5-0.3,7.4c0.1,0.3,0.1,0.6-0.1,0.8
		c-0.2,0.2-0.5,0.3-0.8,0.2c-3.2-0.7-6.6-0.1-9.4,1.8c-2.8,1.7-4.8,4.6-5.4,7.8l0,0c-0.6,3.2,0.2,6.6,2.3,9.1
		c2.9,3.4,7.9,5.5,13.1,5.6c14.7,0.1,29.7,0,44.2,0L90.3,185.8z"></path><path class="st2" d="M456.5,105.7c-1.2-6.9-8.9-11.9-15.7-10.2c2-4.7-0.2-10.1-4.8-12.1c-2.6-1.1-5.6-1-8,0.4
		c-0.7-9.5-9.5-17.8-19-17.8s-18.4,8.2-19.1,17.7c-6.1-1.1-12.5,3.8-13.1,9.9c-3.2-4-9.5-4-13.8-1.3s-6.8,7.5-8.5,12.3
		c-1.5,4.2-2.3,9.4,0.7,12.7c4.5,4.9,12.4,4,19,4c22.1,0,44.2,0.1,66.4,0C448.8,121.2,458.2,115.5,456.5,105.7z"></path><path class="st1" d="M368.4,122c-5.2,0-10.5-0.5-13.9-4.3c-2.7-2.9-3-7.6-0.9-13.5c2.2-6.1,5-10.3,8.8-12.7c4-2.5,10-2.9,13.8,0.4
		c0.7-2.7,2.3-5,4.5-6.7c2.4-1.9,5.4-2.8,8.4-2.5c1.2-9.6,10-17.6,19.8-17.6h0c9.7,0,18.4,7.9,19.7,17.4c5.1-2.1,10.9,0.4,13,5.5
		c0.8,2,0.9,4.3,0.4,6.4c3.2-0.4,6.5,0.4,9.2,2.2c3.2,2,5.4,5.2,6.1,8.8c0.7,3.7-0.2,7.4-2.6,10.3c-3.1,3.7-8.6,6.1-14.3,6.1
		c-14.8,0.1-29.8,0-44.3,0c-7.4,0-14.7,0-22.1,0h-2.7C370.3,122,369.3,122,368.4,122z M369.2,91.1c-2.2,0-4.3,0.6-6.1,1.7
		c-3.4,2.2-6.1,6.1-8.1,11.9c-1.3,3.7-2.3,8.9,0.6,12c3.6,4,9.8,3.8,15.7,3.7h2.7c7.4,0,14.8,0,22.1,0c14.5,0,29.5,0,44.2,0
		c5.2,0,10.3-2.2,13.1-5.6c2.1-2.5,3-5.9,2.3-9.1l0,0c-1.5-6.7-8.1-11-14.8-9.6c-0.3,0.1-0.6,0-0.8-0.2c-0.2-0.2-0.2-0.5-0.1-0.8
		c1.9-4.3-0.1-9.3-4.4-11.1c-2.4-1-5.1-0.9-7.4,0.3c-0.2,0.1-0.5,0.1-0.7,0c-0.2-0.1-0.4-0.4-0.4-0.6c-0.6-9.1-9.2-17.1-18.3-17.1
		s-17.7,7.9-18.4,17c0,0.2-0.1,0.4-0.3,0.5c-0.2,0.1-0.4,0.2-0.6,0.1c-5.9-0.8-11.4,3.3-12.2,9.3c-0.1,0.4-0.4,0.7-0.8,0.6
		c-0.2,0-0.4-0.1-0.5-0.3C374.3,92,371.8,91,369.2,91.1L369.2,91.1z"></path><path class="st2" d="M286.8,407.1c-3.8,2.6-9.6-0.7-10.3-5.3s2.9-9,7.3-10.5s9.2-0.7,13.5,1c-1.3-13.3,8.4-25.2,21.7-26.6
		c2.3-0.2,4.6-0.1,6.9,0.3c1.5-13,7.9-25.6,18-33.9s24.1-12,36.9-8.9s23.8,13.2,27.1,25.9c11.8-8.8,28.5-6.5,37.4,5.4
		c5.3,7.1,6.8,16.4,3.9,24.8c9.7-0.1,18.6,5.4,22.7,14.2c9.4-2.3,19.8,6.5,19.1,16.2c-2,0.4-3.9,1.2-5.9,1.2L286.8,407.1z"></path><path class="st1" d="M485.2,411.6L287,407.9c-1.9,1.2-4.3,1.3-6.3,0.3c-2.6-1.1-4.4-3.4-4.9-6.2c-0.7-5.1,3.4-9.8,7.8-11.3
		c3.7-1.3,8.1-1.1,12.9,0.6c-0.7-13.8,9.9-25.6,23.7-26.3c1.7-0.1,3.5,0,5.2,0.3c1.8-13.4,8.4-25.6,18.2-33.6
		c10.6-8.6,25-12.1,37.5-9.1c12.9,3.1,23.7,13.2,27.4,25.4c9.3-6.3,22.7-6.2,31.8,0.4s13.3,19.4,10.1,30.2
		c9.4,0.3,17.9,5.7,22.1,14.1c4.8-0.8,9.8,0.6,13.4,3.9c4,3.2,6.2,8.1,6,13.2c0,0.3-0.3,0.6-0.6,0.7c-0.6,0.1-1.3,0.3-1.9,0.5
		C488,411.3,486.6,411.5,485.2,411.6z M286.8,406.4L286.8,406.4l198.4,3.7c1.3-0.1,2.5-0.3,3.8-0.7l1.4-0.4
		c-0.2-8.6-7.3-15.3-15.9-15.1c-0.8,0-1.5,0.1-2.3,0.2c-0.3,0.1-0.7-0.1-0.9-0.4c-4-8.5-12.6-13.8-22-13.7c-0.2,0-0.5-0.1-0.6-0.3
		c-0.1-0.2-0.2-0.5-0.1-0.7c3.6-10.3-0.4-23-9.2-29.5s-22.1-6.4-30.9,0.2c-0.2,0.1-0.5,0.2-0.7,0.1c-0.2-0.1-0.4-0.3-0.5-0.5
		c-3.2-12.1-13.9-22.3-26.6-25.3c-12.1-2.9-26,0.4-36.2,8.8c-9.7,7.9-16.2,20.1-17.8,33.4c0,0.2-0.1,0.4-0.3,0.5
		c-0.2,0.1-0.4,0.2-0.6,0.1c-12.8-2.4-25.1,6-27.5,18.7c-0.4,2.2-0.5,4.5-0.3,6.7c0,0.3-0.1,0.5-0.3,0.7c-0.2,0.2-0.5,0.2-0.7,0.1
		c-5-1.9-9.4-2.2-13-1c-3.8,1.3-7.4,5.3-6.8,9.7c0.4,2.2,1.9,4.1,4,5c1.6,0.8,3.5,0.7,5.1-0.3C286.5,406.4,286.6,406.4,286.8,406.4
		L286.8,406.4z"></path></g></svg>